<svg width="722" height="708" viewBox="0 0 722 708" fill="none" xmlns="http://www.w3.org/2000/svg">
<g clip-path="url(#clip0)">
<path d="M430.735 469.887C430.735 464.236 430.478 456.274 429.965 446C429.451 435.555 428.766 423.826 427.91 410.812C427.225 397.798 426.283 383.928 425.084 369.202C424.057 354.305 423.03 339.579 422.002 325.025C419.434 290.778 416.608 253.877 413.526 214.323C396.232 262.953 380.136 307.901 365.239 349.168C358.903 366.805 352.482 384.528 345.975 402.336C339.639 420.144 333.646 436.839 327.996 452.421C322.345 467.832 317.208 481.617 312.585 493.774C308.133 505.76 304.708 514.836 302.311 521H254.023C249.4 508.671 244.349 494.887 238.869 479.647C233.561 464.408 227.996 448.483 222.174 431.874C216.523 415.264 210.701 398.483 204.708 381.531C198.886 364.408 193.321 347.884 188.013 331.959C175.342 294.631 162.414 256.275 149.229 216.891C146.147 262.61 143.493 303.449 141.267 339.408C140.239 354.819 139.212 369.887 138.185 384.613C137.328 399.339 136.472 412.61 135.616 424.425C134.931 436.069 134.332 445.572 133.818 452.935C133.476 460.127 133.304 463.894 133.304 464.236C133.304 469.373 133.647 473.569 134.332 476.822C135.188 479.904 136.558 482.387 138.441 484.271C140.496 485.983 143.236 487.182 146.661 487.867C150.085 488.38 154.452 488.637 159.76 488.637H180.565L177.482 524.596C163.27 522.884 150 521.856 137.671 521.514C125.342 521.171 113.27 521 101.455 521C87.0717 521 73.3731 521.171 60.3594 521.514C47.517 521.856 34.0752 522.884 20.0342 524.596L25.6849 488.637H51.3697C56.3355 488.637 61.0443 488.551 65.4964 488.38C69.9484 488.209 74.2292 487.524 78.3388 486.325C80.5648 482.387 82.7052 477.935 84.76 472.969C86.9861 467.832 88.5271 461.925 89.3833 455.247C90.5819 446.171 91.8662 434.956 93.236 421.6C94.6059 408.243 95.9758 393.946 97.3456 378.706C98.7155 363.466 99.9997 347.884 101.198 331.959C102.397 316.035 103.51 301.052 104.537 287.011C105.736 272.799 106.678 260.127 107.363 248.997C108.219 237.867 108.818 229.391 109.161 223.569C109.674 216.891 109.931 211.326 109.931 206.874C109.931 202.422 109.674 198.826 109.161 196.087C108.818 193.176 108.219 190.522 107.363 188.124C103.767 186.754 99.7429 185.727 95.2908 185.042C90.8388 184.357 85.6162 184.015 79.6231 184.015H52.9108V155.761C57.8765 155.076 62.8423 154.477 67.808 153.963C72.945 153.45 78.3388 153.022 83.9895 152.679C89.6402 152.337 95.6333 152.165 101.969 152.165C108.476 151.994 115.496 151.909 123.03 151.909C135.359 151.909 146.147 152.337 155.393 153.193C164.811 153.878 172.773 154.734 179.28 155.761C183.39 165.35 187.928 177.08 192.893 190.95C198.03 204.648 203.424 219.545 209.075 235.641C214.725 251.737 220.462 268.518 226.284 285.984C232.105 303.278 237.756 320.316 243.236 337.096C248.886 353.706 254.109 369.631 258.903 384.87C263.869 399.939 268.236 413.209 272.003 424.682C275.941 436.154 279.109 445.401 281.506 452.421C283.903 459.271 285.273 462.952 285.616 463.466C299.485 421.343 312.071 383.586 323.372 350.196C334.845 316.805 345.033 287.439 353.937 262.097C363.013 236.754 370.718 215.35 377.054 197.884C383.561 180.248 388.869 166.207 392.978 155.761C396.403 155.248 400.598 154.82 405.564 154.477C410.701 153.963 415.923 153.535 421.232 153.193C426.54 152.679 431.677 152.337 436.643 152.165C441.78 151.994 446.146 151.909 449.742 151.909C462.242 151.909 473.458 152.337 483.389 153.193C493.492 153.878 503.081 154.648 512.156 155.504C512.499 155.504 512.841 155.59 513.183 155.761C513.526 155.761 513.868 155.761 514.211 155.761L516.779 184.015H494.69C489.211 184.015 483.903 184.443 478.766 185.299C473.8 185.984 470.119 187.268 467.721 189.152C467.036 192.405 466.694 196.343 466.694 200.967C466.694 203.878 466.779 207.045 466.951 210.47C467.293 213.723 467.636 217.319 467.978 221.258L485.958 455.247C486.471 461.925 487.413 467.661 488.783 472.456C490.153 477.25 491.437 481.617 492.636 485.555C497.773 486.754 503.081 487.61 508.56 488.123C514.04 488.466 520.118 488.637 526.796 488.637H540.409L546.06 524.596C531.677 522.884 517.721 521.856 504.194 521.514C490.838 521.171 476.797 521 462.071 521C450.256 521 438.098 521.171 425.598 521.514C413.098 521.856 399.913 522.884 386.043 524.596L382.961 488.637H403.766C409.417 488.637 413.954 488.38 417.379 487.867C420.975 487.353 423.715 486.411 425.598 485.041C427.653 483.5 429.023 481.531 429.708 479.134C430.393 476.736 430.735 473.654 430.735 469.887ZM643.663 529.733C637.669 529.733 632.447 528.705 627.995 526.651C623.543 524.596 619.861 521.942 616.95 518.688C614.039 515.264 611.813 511.497 610.272 507.387C608.902 503.106 608.217 498.74 608.217 494.288C608.217 489.836 608.902 485.469 610.272 481.188C611.813 476.736 614.039 472.798 616.95 469.373C619.861 465.949 623.457 463.209 627.738 461.154C632.19 459.099 637.327 458.072 643.149 458.072C648.799 458.072 653.765 459.099 658.046 461.154C662.498 463.209 666.18 465.949 669.091 469.373C672.173 472.798 674.399 476.736 675.769 481.188C677.31 485.469 678.08 489.921 678.08 494.545C678.08 498.825 677.395 503.021 676.025 507.13C674.656 511.24 672.515 515.007 669.604 518.432C666.864 521.685 663.269 524.339 658.817 526.394C654.536 528.449 649.484 529.562 643.663 529.733Z" fill="black"/>
<circle cx="444.822" cy="122.587" r="122.587" fill="#5EC8DE"/>
<circle cx="658.476" cy="483.345" r="63.045" fill="#DF5050"/>
</g>
<defs>
<clipPath id="clip0">
<rect width="721.515" height="707.505" fill="white"/>
</clipPath>
</defs>
</svg>
